HIERARCHY
ROOT Hips
{
  OFFSET 265.287 66.7526 -254.649
  CHANNELS 6 Xposition Yposition Zposition Zrotation Xrotation Yrotation
  JOINT LeftUpLeg
  {
    OFFSET 8.64259 1.95398 -2.38835
    CHANNELS 3 Zrotation Xrotation Yrotation
    JOINT LeftLeg
    {
      OFFSET 43.7702 0 0
      CHANNELS 3 Zrotation Xrotation Yrotation
      JOINT LeftFoot
      {
        OFFSET 40.6238 0 0
        CHANNELS 3 Zrotation Xrotation Yrotation
        JOINT LeftToeBase
        {
          OFFSET 12.7242 0 0
          CHANNELS 3 Zrotation Xrotation Yrotation
          End Site
          {
            OFFSET 0 0 0
          }
        }
      }
    }
  }
  JOINT RightUpLeg
  {
    OFFSET -8.2249 1.95398 -2.59336
    CHANNELS 3 Zrotation Xrotation Yrotation
    JOINT RightLeg
    {
      OFFSET 43.5653 0 0
      CHANNELS 3 Zrotation Xrotation Yrotation
      JOINT RightFoot
      {
        OFFSET 40.6238 0 0
        CHANNELS 3 Zrotation Xrotation Yrotation
        JOINT RightToeBase
        {
          OFFSET 12.7242 0 0
          CHANNELS 3 Zrotation Xrotation Yrotation
          End Site
          {
            OFFSET 0 0 0
          }
        }
      }
    }
  }
  JOINT Spine
  {
    OFFSET 0.165834 0.87714 6.61349
    CHANNELS 3 Zrotation Xrotation Yrotation
    JOINT Spine1
    {
      OFFSET 7.38963 1.71661e-005 0
      CHANNELS 3 Zrotation Xrotation Yrotation
      JOINT Spine2
      {
        OFFSET 11.9445 1.14441e-005 0
        CHANNELS 3 Zrotation Xrotation Yrotation
        JOINT Spine3
        {
          OFFSET 14.7254 4.19617e-005 0
          CHANNELS 3 Zrotation Xrotation Yrotation
          JOINT Spine4
          {
            OFFSET 10.9679 0 0
            CHANNELS 3 Zrotation Xrotation Yrotation
            JOINT RightShoulder
            {
              OFFSET 2.46616 -1.6653 3.69651
              CHANNELS 3 Zrotation Xrotation Yrotation
              JOINT RightArm
              {
                OFFSET 13.0012 0 0
                CHANNELS 3 Zrotation Xrotation Yrotation
                JOINT RightForeArm
                {
                  OFFSET 28.7848 1.52588e-005 0
                  CHANNELS 3 Zrotation Xrotation Yrotation
                  JOINT RightHand
                  {
                    OFFSET 26.5688 1.52588e-005 0
                    CHANNELS 3 Zrotation Xrotation Yrotation
                    End Site
                    {
                      OFFSET 0 0 0
                    }
                  }
                }
              }
            }
            JOINT LeftShoulder
            {
              OFFSET 2.38034 -1.29275 -3.7523
              CHANNELS 3 Zrotation Xrotation Yrotation
              JOINT LeftArm
              {
                OFFSET 16.3182 6.10351e-005 0
                CHANNELS 3 Zrotation Xrotation Yrotation
                JOINT LeftForeArm
                {
                  OFFSET 27.0901 0 0
                  CHANNELS 3 Zrotation Xrotation Yrotation
                  JOINT LeftHand
                  {
                    OFFSET 24.5451 1.52588e-005 0
                    CHANNELS 3 Zrotation Xrotation Yrotation
                    End Site
                    {
                      OFFSET 0 0 0
                    }
                  }
                }
              }
            }
            JOINT Neck
            {
              OFFSET 5.0226 -0.0266342 0
              CHANNELS 3 Zrotation Xrotation Yrotation
              JOINT Head
              {
                OFFSET 6.69364 2.86102e-005 0
                CHANNELS 3 Zrotation Xrotation Yrotation
                End Site
                {
                  OFFSET 0 0 0
                }
              }
            }
          }
        }
      }
    }
  }
}
MOTION
Frames:	9
Frame Time:	0.0416667
83.0493 97.1417 -104.424 -101.328 -46.4678 -98.4678 -178.976 12.3113 86.7495 -11.8735 11.5465 1.6817 49.9549 -0.813138 8.22258 43.7471 -4.5186 3.41229 175.874 -1.13214 89.6494 -28.7116 -8.14498 -1.65759 68.8818 0.677583 13.7898 33.6156 -0.822106 1.69885 0.665117 7.74764 -90.5879 11.3834 1.04925 -1.27651 -0.287814 0.992085 -1.32146 -22.8235 1.38436 -0.902169 -2.81086 1.38439 -0.902164 100.539 -52.2299 -84.6342 19.2607 -7.35938 -12.413 -4.17434 -18.105 -24.6969 -10.0395 -0.449599 0.0296626 -86.2986 -53.5912 84.5761 -27.6851 12.0877 -3.11586 -0.332177 25.6114 -2.56874 2.30324 -0.0363702 -3.0437 4.95206 1.44203 -1.6345 -13.1063 1.23844 5.71448 
76.8646 96.1102 -98.6067 -100.03 -44.6822 -96.4458 -177.224 16.3468 87.2291 -6.08771 15.0228 2.46916 56.1783 -0.975717 2.56252 39.7244 -3.41198 3.03991 176.034 -5.48132 90.5248 -29.2591 -8.61364 -2.2726 69.3087 0.319174 15.8274 39.1203 -1.52172 1.1837 0.853199 7.67692 -90.5462 11.5274 1.44204 -1.23589 -0.143348 1.38623 -1.29817 -22.6829 1.74678 -0.745314 -2.67026 1.74676 -0.745327 99.9004 -52.9217 -85.5744 17.0843 -7.517 -16.9207 -5.88771 -20.1326 -27.0747 -9.00364 -0.428839 0.38691 -85.6856 -53.296 85.426 -28.1036 11.3244 -2.87557 0.122517 26.2776 -2.51286 0.738625 -0.0845169 -4.10584 4.71554 1.56099 -3.27614 -12.8498 1.52757 7.35657 
70.079 94.8839 -91.478 -99.4904 -44.6821 -96.6338 -178.085 17.0392 86.094 -10.6585 16.6275 2.19857 50.0933 -2.90385 6.53095 42.5374 -4.17346 4.76897 175.763 -9.57609 89.1599 -31.2252 -10.1595 -3.29838 64.5195 2.09969 19.3909 49.5033 -2.73906 2.65141 0.916019 7.57633 -90.2757 11.7279 1.69245 -0.728891 0.0577252 1.65875 -0.802696 -22.4859 1.83325 -0.186387 -2.4733 1.83326 -0.186393 100.392 -53.6318 -84.8137 18.6812 -7.0033 -14.9563 -6.87914 -18.6059 -29.6396 -9.78774 -0.520524 1.07041 -85.6915 -53.9005 85.4964 -25.8786 11.2096 -6.22648 -1.52262 29.7741 0.0421685 0.670451 -0.0696175 -3.49556 5.7024 1.10417 -4.33252 -12.8464 1.32481 7.1167 
63.0367 93.7053 -83.8794 -99.5895 -44.6312 -98.4239 -179.3 19.4546 83.4365 -26.7474 18.0798 2.79935 51.5869 -2.64895 14.1802 40.6729 -3.61136 -3.36715 173.591 -8.71169 85.0732 -38.8564 -9.61844 -3.14875 45.5455 7.26959 27.4563 48.9005 -2.0776 14.4865 0.843494 7.45396 -89.8389 11.9675 1.75313 0.130581 0.297795 1.75717 0.0532653 -22.246 1.63279 0.651569 -2.23332 1.6328 0.651562 100.834 -53.5652 -84.1552 22.2834 -8.06231 -8.90022 -7.1839 -19.4168 -29.8034 -9.6733 -0.481011 0.595634 -86.019 -54.0437 85.0424 -23.857 11.2965 -9.15831 -1.92072 29.7649 0.00301872 2.63385 0.0419366 -1.5218 7.21139 0.889992 -4.06452 -13.482 1.19495 5.74407 
56.57 93.7741 -77.102 -101.213 -43.9085 -100.724 -178.753 14.7442 81.792 -33.069 18.0736 2.35186 59.7454 1.64148 19.5018 37.2617 -2.39852 -6.70273 175.166 2.41283 83.9054 -58.9234 -14.8139 -3.95466 38.9807 9.77224 19.0732 50.4679 -2.48807 8.16584 0.542574 7.61529 -89.569 11.6391 1.2815 0.725661 -0.0314046 1.31219 0.668545 -22.5684 1.00418 1.07726 -2.5557 1.00418 1.07727 100.46 -53.502 -84.7152 25.9064 -6.53216 -5.77396 -7.56047 -24.098 -26.32 -7.49363 -0.492604 2.64188 -86.0778 -53.4926 84.8825 -22.0466 11.5559 -15.0195 -1.76552 29.3232 -0.00301461 4.41387 -0.0674175 -3.97994 8.72565 1.78825 -3.12612 -14.597 1.78592 6.6076 
50.4775 94.8817 -70.5314 -102.315 -45.9403 -99.3322 -178.256 7.80075 83.8965 -33.0694 20.357 3.53152 64.0556 4.23381 19.963 38.0522 -2.71972 -5.72322 175.043 12.5095 86.7676 -63.6655 -11.2587 -2.51965 44.1142 7.7078 18.0748 41.9118 -1.85534 6.65584 0.0804258 7.59651 -89.8738 11.6806 0.219306 0.230423 0.00963965 0.229248 0.22054 -22.5253 0.139942 0.285685 -2.51266 0.139915 0.285675 100.965 -53.5494 -83.9598 27.603 -3.90237 -2.33577 -6.45512 -27.3487 -20.9586 -6.88744 -0.395637 1.57423 -85.8825 -52.6694 85.0555 -20.8412 11.7005 -22.2153 -1.17127 30.0266 -0.113339 6.17822 0.00806382 -3.05394 5.59418 2.87617 -2.67932 -14.2716 2.58474 7.94602 
44.5186 96.0293 -64.6219 -101.418 -49.8266 -97.5123 -176.698 0.686104 86.5135 -29.1485 24.4336 3.66515 65.6054 5.31129 17.4114 37.9265 -2.72612 -3.84643 173.731 19.4092 88.7692 -52.6826 -7.49571 -0.122309 52.5531 4.73942 17.8182 39.0654 -1.5546 1.82157 -0.328215 7.43275 -90.1068 12.0082 -0.702997 -0.13731 0.337413 -0.708369 -0.106234 -22.1991 -0.62922 -0.34225 -2.18644 -0.629229 -0.34225 101.304 -53.9763 -83.4484 27.9432 -2.57576 3.35838 -3.90771 -24.417 -17.7294 -8.7698 -0.619699 3.22624 -85.4558 -50.9406 85.4537 -19.7088 13.0874 -28.8112 1.15451 27.6085 -3.96508 7.73007 0.00948184 -3.2574 3.69761 3.11465 -4.3499 -15.1563 2.91586 8.91568 
38.7808 96.4044 -58.998 -100.132 -53.1648 -97.3116 -175.632 -4.29193 87.8667 -24.6321 26.307 3.61713 66.1863 5.44496 13.8003 38.6606 -3.01773 -1.91102 174.298 18.7503 87.9508 -24.7374 -1.94929 1.25711 52.476 4.95509 18.7801 39.131 -1.51319 1.05306 -0.553173 7.39549 -90.1186 12.0828 -1.15568 -0.109822 0.412354 -1.1594 -0.0588557 -22.1264 -1.06924 -0.452121 -2.11379 -1.06925 -0.452118 101.49 -54.5456 -83.1648 28.2919 -1.15157 7.22528 -2.98176 -25.586 -14.8012 -8.15655 -0.599878 3.60298 -85.3862 -50.2574 85.4675 -16.7385 14.6464 -35.1926 5.31561 26.8431 -12.3693 6.5641 -0.107761 -4.59904 3.05159 2.65927 -4.47842 -14.284 2.61664 8.00486 
32.6452 96.1296 -53.1005 -101.07 -57.2226 -100.279 -175.849 -10.4016 88.5891 -22.5668 29.979 4.7231 64.3038 4.39799 11.0542 43.2468 -4.46693 -0.173616 177.26 16.8973 85.5401 -5.83043 4.21115 -1.37788 53.6588 6.28387 20.431 41.6406 -1.85673 -2.6541 -0.841234 7.49421 -89.9946 11.888 -1.67019 0.189975 0.218127 -1.66021 0.263311 -22.3255 -1.65006 -0.320913 -2.3128 -1.65003 -0.320919 102.128 -54.929 -82.2241 29.0571 1.2392 9.0405 -3.34586 -27.9257 -12.2919 -4.03626 -0.269001 2.99249 -85.7722 -49.3614 84.7588 -15.4936 15.6008 -38.4242 8.63698 25.6841 -18.6539 7.44853 -0.206134 -5.71528 3.39884 1.85749 -5.22458 -14.0097 1.88003 9.10068 
